<?xml version="1.0" encoding="UTF-8"?>
<svg width="375px" height="400px" viewBox="0 0 375 400" version="1.1" xmlns="http://www.w3.org/2000/svg" xmlns:xlink="http://www.w3.org/1999/xlink">
    <!-- Generator: Sketch 59 (86127) - https://sketch.com -->
    <title>编组</title>
    <desc>Created with Sketch.</desc>
    <defs>
        <path d="M238.079903,10.0024132 C240.142607,9.88758603 240.256549,13.9044619 242.547829,14.8223875 C244.839108,15.7403132 246.787179,15.0520418 247.588919,16.5441034 C248.39066,18.0354731 246.672546,19.757189 249.192401,19.1830531 C251.712946,18.609609 260.304898,16.1996218 261.794437,16.1996218 C263.283285,16.1996218 266.835528,17.0027203 267.064103,21.1337316 C267.293369,25.2654346 269.126116,34.6750371 269.584649,34.7898643 C270.043181,34.9046915 270.844921,35.3640002 270.730288,36.9701971 C270.616346,38.5770858 271.532719,60.7255871 271.418086,63.5941912 C271.364204,64.9425544 271.107859,67.1278157 270.851288,69.0653151 L270.575673,69.068043 L270.575673,69.068043 C269.205347,69.068043 268.138696,70.141106 266.158953,70.9072826 C264.178521,71.6734593 251.993634,73.665103 251.993634,73.665103 C251.993634,73.665103 252.450179,82.8592228 251.993634,84.2384794 C251.536399,85.6170432 250.045566,86.230123 247.744933,85.3108496 C245.443611,84.3915761 243.768232,84.0853826 243.61605,84.5446729 C243.463179,85.004656 244.225466,88.528653 243.61605,89.4479264 C243.006633,90.3678926 240.265292,90.5209894 240.112421,94.1987759 C239.960239,97.8758697 239.655875,100.327496 237.979808,102.013639 C236.305117,103.699089 236.000065,104.465266 236.000065,104.465266 C236.000065,104.465266 240.569656,112.433226 241.179072,113.812483 C241.788489,115.191739 242.702269,115.65103 241.331254,117.030286 C239.960239,118.409543 237.523262,119.941896 237.523262,119.941896 L245.748663,119.941896 C245.748663,119.941896 248.337823,118.256446 250.622618,118.868833 C252.907414,119.481913 253.516831,121.474249 253.516831,123.465893 C253.516831,125.458229 254.734975,125.458229 255.496574,125.611326 C256.258172,125.765116 256.867589,127.450566 258.390786,127.143679 C259.913983,126.837486 259.609619,125.765116 261.894414,125.458229 C264.178521,125.151343 265.854589,126.990583 266.615499,128.982919 C267.175674,130.4465 270.861345,137.619921 272.776396,141.320942 C267.55971,144.919015 261.496337,149.699894 258.69329,151.274856 C253.7972,154.024768 234.827013,164.261818 229.62522,168.387722 C224.424119,172.512935 215.856135,176.791497 210.348639,179.388751 C204.841143,181.986005 192.907659,189.778458 189.236456,191.612423 C186.153102,193.151856 180.804427,195.984465 179.169043,196.852951 C176.629221,194.669092 173.476609,191.656738 173.476609,191.656738 L173.476609,191.656738 L173.476609,187.975267 C172.561168,188.281825 170.272222,187.361457 169.509929,187.054206 C168.746257,186.747648 169.051174,180.917496 169.051174,180.917496 C169.967305,180.917496 172.561168,176.008406 172.256251,173.70714 C171.951334,171.405873 168.899405,166.036253 166.152394,165.729694 C163.405382,165.422443 162.948006,164.809327 162.489941,163.12187 C162.032565,161.43372 163.710299,158.518644 162.489941,156.371351 C161.268893,154.223364 160.353453,152.228656 160.353453,152.228656 C159.285554,154.070085 156.539231,154.837174 154.249595,151.308288 C152.815894,149.097941 154.615086,145.623939 156.159748,143.336457 C157.764951,142.291541 159.296352,141.04652 159.069437,140.213659 C158.611596,138.53068 154.640183,136.081956 152.806745,134.55185 C150.973998,133.021743 150.66808,132.103817 149.14056,132.25669 C147.613041,132.409562 142.114799,132.409562 142.573331,130.420838 C143.031172,128.431423 145.933598,128.125678 145.62768,126.748444 C145.322452,125.37121 144.100851,120.169401 145.169147,119.250783 C146.238825,118.332858 147.456283,116.649879 150.818622,117.567804 C154.181651,118.486422 158.458982,119.250783 160.596957,118.027113 C162.735622,116.802751 165.026902,115.426208 167.624099,115.273336 C170.220606,115.119772 172.092025,117.185278 174.039405,113.398748 C175.986785,109.611526 178.049489,109.152218 179.423704,107.431194 C180.79861,105.709478 185.83901,99.5129607 186.870017,95.8405664 C187.901024,92.1688638 190.880101,85.1685567 190.192994,84.709248 C189.505886,84.2499394 187.443182,84.709248 186.756075,84.2499394 C186.068276,83.7913224 184.006263,76.4472255 183.663055,75.8730896 C183.319156,75.2989538 183.548422,74.3810281 181.600351,74.3810281 C179.65297,74.3810281 178.553598,73.807584 178.553598,73.807584 L178.553598,70.4796712 C178.553598,70.4796712 175.41362,69.3313995 175.528253,67.3814127 C175.642886,65.4300425 175.872152,62.6755739 177.018483,60.7255871 C178.164122,58.7742169 176.674584,54.9876872 175.986785,53.3807985 C175.299678,51.7739098 173.352298,47.6428986 173.695506,46.150837 C174.039405,44.6594673 175.872152,44.2001586 179.423704,45.0032571 C182.975256,45.8070473 190.765468,46.150837 192.598215,46.6101457 C194.430963,47.0687627 207.491531,51.0856385 208.523228,52.0035642 C209.554235,52.9214898 218.833295,40.0691473 220.895999,37.0850243 C222.958012,34.101593 231.893173,19.6423618 232.810237,17.5768562 C233.72661,15.5106588 236.01789,10.1172404 238.079903,10.0024132 Z" id="乌镇镇" stroke="#FFFFFF" fill="#E4DFFF"></path>
        <path d="M317.957156,235.744631 C319.1286,236.458588 320.048937,237.12027 320.048937,237.12027 C320.048937,237.12027 320.962367,239.20045 321.076632,241.511916 C321.190896,243.823382 323.816922,250.410852 323.816922,250.410852 C323.816922,250.410852 327.128536,250.295209 328.841819,250.410852 C330.554414,250.526494 332.267698,251.104709 332.610492,251.104709 C332.952598,251.104709 334.665882,251.335995 334.893723,250.179566 C335.122253,249.024529 337.291907,248.6776 337.291907,248.6776 C337.291907,248.6776 345.628418,248.330671 346.085478,248.6776 C346.541848,249.024529 349.396403,253.300532 350.539051,254.452086 C351.602255,255.524221 353.951884,255.304681 354.270914,255.269301 L354.307036,255.26507 C354.307036,255.26507 354.649142,257.692179 354.649142,259.19484 C354.649142,260.696806 356.590955,262.546397 357.732915,262.03088 C358.874874,261.516059 362.072223,259.19484 362.072223,259.19484 C362.072223,259.19484 363.214183,259.19484 363.442712,262.03088 C363.671242,264.867616 362.414329,266.244185 362.072223,267.169329 C361.729429,268.093776 362.757124,269.712081 363.328448,269.94267 C363.899772,270.173956 364.813202,269.480795 365.498102,269.364455 C366.183002,269.249509 367.439227,270.405242 368.124127,271.676618 C368.809716,272.947994 368.809716,275.374406 368.809716,276.621399 C368.809716,277.868393 367.439227,277.685872 368.238392,278.494676 C369.038246,279.304177 370.97937,282.309501 372.920495,283.811466 C374.86162,285.314128 375.090149,286.931736 374.975885,288.203112 C374.86162,289.474488 371.550694,289.590131 369.60957,290.861507 C367.667756,292.132883 365.041731,293.519205 364.813202,293.866134 C364.584672,294.213063 366.183002,296.524529 366.754326,298.027191 C367.324962,299.529156 366.754326,301.031818 365.840896,301.840622 C364.927466,302.649427 365.041731,305.539107 365.155308,307.157412 C365.261692,308.663461 366.556051,311.071691 366.734077,311.396697 L366.754326,311.433415 L351.223951,311.895291 C351.223951,311.895291 332.039168,312.473506 331.582109,312.589148 C331.12505,312.704095 330.440149,310.855201 328.727554,310.046397 C327.014959,309.237592 324.730352,310.162039 323.816922,310.393325 C322.903492,310.624611 319.477613,310.970844 318.511869,310.393325 C317.546125,309.815111 315.252569,307.157412 315.252569,307.157412 C315.252569,307.157412 314.339139,318.714046 314.339139,319.52285 C314.339139,320.332351 309.999142,321.488084 308.857871,321.256798 C307.715911,321.025512 306.230469,319.407207 303.375914,318.960658 C300.520671,318.513412 299.950035,320.794923 299.950035,320.794923 L299.950035,320.794923 L305.545568,325.87973 C305.545568,325.87973 303.832973,326.573588 302.462484,327.440213 C301.092683,328.306839 293.555337,329 293.212543,329 C292.870437,329 290.129458,325.87973 290.129458,325.87973 L290.129458,325.87973 L285.297479,325.879654 L285.381674,325.85406 C286.935546,325.269449 285.078983,322.523516 285.225841,322.079016 C285.378666,321.619933 286.29217,318.102835 287.053538,316.879076 C287.814906,315.656008 285.378666,311.831934 285.378666,310.91446 C285.378666,309.996986 291.012513,303.726776 291.012513,302.656505 C291.012513,301.585543 288.880545,301.432746 288.880545,300.668069 L288.880545,293.327588 C288.880545,293.327588 286.59713,293.785979 286.140034,293.327588 C285.683626,292.868505 284.769434,289.657001 286.444306,288.739527 C288.119866,287.821362 292.992346,286.598294 292.687385,285.528024 C292.383114,284.457062 291.012513,280.633678 291.621746,280.480881 C292.230289,280.328084 294.666529,280.633678 295.428585,279.869001 C296.189953,279.105016 296.494914,275.128144 294.362257,274.82255 C294.035179,274.775561 293.711697,274.739393 293.391258,274.703549 C293.970068,272.229735 293.880261,269.567577 293.880261,268.162344 C293.880261,266.328378 293.498478,263.168156 295.831365,262.532657 C298.164253,261.89785 306.272299,264.823214 309.484948,263.589519 C312.698288,262.355823 318.357943,260.369891 317.899389,258.23061 C317.899389,258.23061 315.145987,257.305683 315.298147,255.017889 C315.45169,252.730095 313.921791,236.815006 314.533889,237.056772 C315.145987,237.297847 317.951953,237.578986 317.925671,237.056772 C317.917308,236.890393 317.932473,236.452118 317.951247,235.917041 Z" id="屠甸镇"></path>
        <path d="M152.037222,141.029577 C153.181696,141.259842 157.912048,141.029577 157.912048,141.029577 C157.912048,141.029577 151.960648,147.779403 154.249595,151.308288 C156.539231,154.837174 159.285554,154.070085 160.353453,152.228656 C160.353453,152.228656 161.268893,154.223364 162.489941,156.371351 C163.710299,158.518644 162.032565,161.43372 162.489941,163.12187 C162.948006,164.809327 163.405382,165.422443 166.152394,165.729694 C168.899405,166.036253 171.951334,171.405873 172.256251,173.70714 C172.561168,176.008406 169.967305,180.917496 169.051174,180.917496 C169.051174,180.917496 168.746257,186.747648 169.509929,187.054206 C170.272222,187.361457 172.561168,188.281825 173.476609,187.975267 L173.476609,191.656738 C173.476609,191.656738 176.629221,194.669092 179.170573,196.852195 C178.857276,197.018517 178.680019,197.112938 178.680019,197.112938 C178.680019,197.112938 177.150121,207.197329 178.680019,209.489268 C180.209918,211.781207 178.833562,213.461823 178.680019,214.837125 C178.527168,216.211735 177.051217,221.712941 179.395171,223.546215 C181.739816,225.37949 183.881812,225.685496 185.564562,226.143469 C186.075397,226.282707 186.628554,226.619027 187.168385,227.066958 C187.041471,228.087442 187.032584,231.237234 186.888724,231.814675 C186.736773,232.430133 180.778246,235.353033 178.027944,236.275872 C175.278332,237.19871 173.597208,237.660477 171.764134,236.736943 C169.931059,235.814105 163.819891,231.968366 161.375561,231.968366 L151.750194,231.968366 L149.000583,227.968936 C149.000583,227.968936 145.791667,237.045019 145.639716,240.121611 C145.486384,243.197506 143.347337,261.195982 143.347337,263.503425 C143.347337,264.100872 143.091278,265.667684 142.711758,267.661829 C142.725,267.467103 142.732012,267.334262 142.732012,267.272421 C142.732012,266.506881 137.366719,265.283539 135.833976,264.671523 C134.301233,264.059506 132.462219,262.52981 131.236441,263.141827 C130.009969,263.753844 129.244291,264.977185 127.863991,265.130017 C126.484384,265.283539 125.10547,266.966066 126.024977,268.648594 C126.944484,270.331121 129.396734,272.320002 129.090462,273.849697 C128.784191,275.379393 127.097619,276.755566 125.258605,276.602735 C123.418898,276.449904 121.273613,271.860816 120.047141,271.095968 C118.821363,270.331121 112.843527,271.249491 111.92402,270.178289 C111.00382,269.107779 110.391277,268.037268 108.55157,269.26061 C107.413806,270.017897 106.68688,270.48216 105.9348,270.68992 C105.117626,269.41812 104.264282,268.67576 103.627165,268.27616 C102.409586,267.511802 101.496745,265.831874 103.171089,264.763017 C104.844745,263.69416 108.409433,261.250564 107.920337,258.195898 C107.431242,255.14054 106.82314,253.155421 104.844745,253.002826 C102.867038,252.850231 97.0845664,251.475493 96.9325409,248.573421 C96.7805155,245.67204 98.1494327,238.187969 98.302146,235.896969 C98.4534836,233.605969 99.5190377,232.383826 98.4534836,231.772755 C97.8849862,231.446313 96.9254304,230.989226 95.9924231,230.587713 C96.0503047,229.309926 95.9509042,228.253919 96.1826455,227.667339 C96.79086,226.127836 96.1826455,223.819277 94.5098838,224.28071 C92.8384966,224.74284 86.9096078,226.409011 87.3659405,222.574172 C87.8215859,218.738637 88.2779186,216.730741 89.3417786,215.963773 C90.4063258,215.197501 114.728721,219.04626 116.704559,219.508389 C118.681084,219.969822 122.025233,221.356211 123.089781,221.047892 L124.153641,220.74027 C124.153641,220.74027 123.545426,218.64468 124.153641,217.998813 C124.761855,217.352945 127.650359,217.500492 127.80224,215.963773 C127.954122,214.42775 127.954122,205.960481 129.170551,205.190729 C130.386293,204.421674 132.819151,205.036918 134.643107,205.960481 C136.467064,206.88474 140.419427,204.113355 139.963782,203.189793 C139.507449,202.26623 137.683493,199.033412 136.011418,197.955342 C134.338656,196.877968 132.362818,195.184653 132.210937,194.106584 C132.059055,193.02921 127.80224,188.103077 127.194026,188.410699 C126.585811,188.719018 123.697995,193.183021 122.937899,193.336832 C122.177802,193.490643 121.417706,190.412332 121.72147,189.180451 C122.025233,187.949266 123.849877,186.409763 122.633448,186.101444 C121.417706,185.793822 112.448432,181.636745 111.992787,177.480365 C111.536454,173.323984 109.868503,165.780278 109.03006,165.318149 C108.192305,164.856716 102.263416,165.93409 102.263416,165.318149 C102.263416,164.702904 100.287578,157.775139 98.0066018,158.544891 C97.8179361,158.60854 97.6261353,158.678525 97.4326662,158.752924 C97.2798656,157.744258 96.8811361,157.246492 96.0725458,156.908174 C94.6997297,156.332511 93.6697727,155.872674 93.6697727,155.872674 L93.7173378,155.872149 C94.2629855,155.865334 99.3394864,155.780841 100.422096,154.986985 C101.524182,154.177511 104.112297,154.318608 106.55032,154.916052 L106.830871,154.986985 C109.34885,155.642409 111.752313,155.181878 111.752313,154.491776 C111.752313,153.801673 111.981346,148.968876 115.071217,148.623478 C118.161088,148.278773 119.64911,150.004376 121.136443,149.889243 C122.625155,149.774111 126.286918,146.207079 130.292919,145.171578 C134.298231,144.136078 135.786253,145.401844 137.617135,144.366343 C139.448016,143.330843 143.339501,143.100578 145.284899,143.675547 C147.230986,144.251211 149.63376,144.481476 150.091825,143.21571 C150.5492,141.949945 150.892749,140.799311 152.037222,141.029577 Z" id="石门镇"></path>
        <path d="M270.575673,69.068043 C271.947377,69.068043 273.774938,68.9149462 275.450317,69.068043 C277.125696,69.2211398 280.324961,72.4389432 280.781507,73.665103 C281.238741,74.8912627 279.410492,76.8829064 279.562674,77.8021798 C279.715544,78.722146 283.675719,80.2544993 283.675719,80.2544993 L283.675719,80.2544993 L283.771435,89.1417329 C283.771435,89.1417329 287.330841,92.6664226 288.549674,91.9002459 C289.670367,91.1953634 291.43626,91.1389728 291.71163,91.1344616 L291.74825,91.1340693 L308.046183,116.417206 C308.046183,116.417206 313.378061,116.877189 314.596206,116.417206 C315.815039,115.957916 319.470161,113.199403 320.383942,113.046306 C321.298411,112.892516 324.192623,113.659386 327.39051,120.401186 C330.589775,127.143679 331.503555,127.143679 336.986927,131.740739 C342.470987,136.337799 351.000065,135.877816 351.000065,135.877816 L351.000065,135.877816 L351.000065,142.007229 C351.000065,142.007229 349.933413,142.467213 347.496436,142.926503 C345.059458,143.386486 345.212329,148.136643 345.212329,149.668996 C345.212329,151.09567 347.19225,153.186485 347.465343,153.468087 L347.496436,153.499879 C347.496436,153.499879 341.7087,153.959862 341.258352,154.57225 C340.808003,155.185329 340.033321,156.717683 340.185503,158.863116 C340.337685,161.008549 341.099284,161.314743 341.251466,162.540902 C341.404336,163.766369 338.814488,165.145626 338.814488,165.145626 C338.814488,165.145626 338.662306,166.677979 338.662306,167.444156 C338.662306,168.210333 339.728269,169.742686 339.728269,169.742686 L339.728269,169.742686 L337.291291,170.048879 L337.139109,179.396096 L339.728269,180.424131 L339.728269,190.888746 L333.483987,197.018159 L333.483987,207.240314 C333.483987,207.240314 331.047009,207.897729 329.523124,207.240314 C328.066153,206.611481 322.010599,203.300972 321.486783,203.01429 L321.450593,202.994476 L320.993358,208.357712 L319.165797,209.123889 L322.669426,213.414063 C322.669426,213.414063 321.450593,215.559496 319.775214,216.631866 C318.099146,217.704929 315.509986,216.325672 313.834607,213.874046 C313.123236,212.833077 311.8352,212.123576 310.588459,211.651733 C310.451757,210.040884 310.28881,208.65076 310.097045,207.80796 C309.332096,204.446727 305.965905,198.029575 305.813053,197.112938 C305.660202,196.19561 305.660202,183.666622 305.50735,183.208648 C305.353807,182.749984 302.447553,169.609674 295.257308,161.053242 C288.06637,152.496809 284.242316,138.134547 281.335371,137.064561 C280.092908,136.607532 276.670554,138.634647 272.776472,141.32066 C270.861345,137.619921 267.175674,130.4465 266.615499,128.982919 C265.854589,126.990583 264.178521,125.151343 261.894414,125.458229 C259.609619,125.765116 259.913983,126.837486 258.390786,127.143679 C256.867589,127.450566 256.258172,125.765116 255.496574,125.611326 C254.734975,125.458229 253.516831,125.458229 253.516831,123.465893 C253.516831,121.474249 252.907414,119.481913 250.622618,118.868833 C248.337823,118.256446 245.748663,119.941896 245.748663,119.941896 L245.748663,119.941896 L237.523262,119.941896 C237.523262,119.941896 239.960239,118.409543 241.331254,117.030286 C242.702269,115.65103 241.788489,115.191739 241.179072,113.812483 C240.593554,112.487315 236.352374,105.080071 236.020632,104.501149 L236.000065,104.465266 C236.000065,104.465266 236.305117,103.699089 237.979808,102.013639 C239.655875,100.327496 239.960239,97.8758697 240.112421,94.1987759 C240.265292,90.5209894 243.006633,90.3678926 243.61605,89.4479264 C244.225466,88.528653 243.463179,85.004656 243.61605,84.5446729 C243.768232,84.0853826 245.443611,84.3915761 247.744933,85.3108496 C250.045566,86.230123 251.536399,85.6170432 251.993634,84.2384794 C252.450179,82.8592228 251.993634,73.665103 251.993634,73.665103 C251.993634,73.665103 264.178521,71.6734593 266.158953,70.9072826 C268.138696,70.141106 269.205347,69.068043 270.575673,69.068043 Z" id="濮院镇"></path>
        <path d="M281.335371,137.064561 C284.242316,138.134547 288.06637,152.496809 295.257308,161.053242 C302.447553,169.609674 305.353807,182.749984 305.50735,183.208648 C305.660202,183.666622 305.660202,196.19561 305.813053,197.112938 C305.965905,198.029575 309.332096,204.446727 310.097045,207.80796 C310.849852,211.116521 311.158547,222.859887 311.168157,223.231859 L311.168389,223.2409 L315.604541,227.977435 L316.215947,232.102648 C316.215947,232.102648 317.745846,232.408654 317.925671,232.866627 C318.105496,233.325291 317.899389,236.533867 317.925671,237.056772 C317.951953,237.578986 315.145987,237.297847 314.533889,237.056772 C313.921791,236.815006 315.45169,252.730095 315.298147,255.017889 C315.145987,257.305683 317.899389,258.23061 317.899389,258.23061 C318.357943,260.369891 312.698288,262.355823 309.484948,263.589519 C306.272299,264.823214 298.164253,261.89785 295.831365,262.532657 C293.498478,263.168156 293.880261,266.328378 293.880261,268.162344 C293.880261,269.567577 293.970068,272.229735 293.391835,274.703795 C291.623007,274.505754 289.947407,274.317811 288.271313,272.375723 C286.723102,270.581187 284.522366,268.332257 283.27294,265.529313 C283.888829,263.295498 284.282191,259.731481 283.750887,259.19592 C283.139632,258.581158 277.792359,257.503933 277.181104,255.0428 C276.569849,252.581666 276.264567,248.582236 276.264567,248.582236 C276.264567,248.582236 272.750369,247.966779 272.445086,249.043308 C272.139114,250.120532 272.750369,251.350751 270.000065,251.350751 L267.250455,251.350751 C267.250455,251.350751 265.875304,245.505645 264.347512,245.043878 C262.819719,244.582807 255.486731,244.582807 253.805607,244.582807 C252.125865,244.582807 248.611666,241.044449 248.459025,238.121548 C248.305694,235.198647 251.667251,235.506724 251.055996,233.814738 C250.444741,232.122752 248.305694,232.430133 248.153743,231.660985 C248.000411,230.891837 248.153743,227.968936 246.62526,227.968936 C245.097468,227.968936 242.347166,228.122627 241.278678,227.353479 C240.208809,226.584331 239.139631,218.739163 238.528376,218.431782 C237.917121,218.123705 235.472101,223.662126 235.472101,224.738655 C235.472101,225.815183 232.569848,222.584902 231.49998,222.431211 C230.430801,222.277521 229.361623,223.50774 229.361623,224.431274 C229.361623,225.354112 227.375908,227.968936 227.222576,227.815246 C227.069935,227.661555 225.083529,224.584964 223.861709,224.123197 C222.639199,223.662126 225.310764,220.123768 224.738877,219.20093 C224.166991,218.277396 221.875303,217.483908 220.652793,218.419264 C219.430974,219.35462 217.139285,223.046668 215.306211,223.200359 C213.473137,223.354049 212.5566,220.585535 212.097295,224.738655 C211.638681,228.891774 213.167164,231.199218 211.792013,232.737513 C210.416862,234.275809 207.819891,235.814105 205.986817,235.660414 C204.153743,235.506724 201.250109,233.506661 200.333571,232.737513 C199.472266,232.014715 197.936357,234.416674 196.993173,234.708788 C196.80395,234.61198 196.620719,234.5198 196.440764,234.429076 C196.150794,233.686452 196.511747,231.780468 195.902836,231.045527 C195.139631,230.122689 187.348028,226.12326 187.194697,226.892407 C187.185268,226.939917 187.176422,226.99799 187.168086,227.065284 C186.628894,226.619234 186.075554,226.282749 185.564562,226.143469 C183.881812,225.685496 181.739816,225.37949 179.395171,223.546215 C177.051217,221.712941 178.527168,216.211735 178.680019,214.837125 C178.833562,213.461823 180.209918,211.781207 178.680019,209.489268 C177.150121,207.197329 178.680019,197.112938 178.680019,197.112938 C178.680019,197.112938 185.564562,193.445698 189.236456,191.612423 C192.907659,189.778458 204.841143,181.986005 210.348639,179.388751 C215.856135,176.791497 224.424119,172.512935 229.62522,168.387722 C234.827013,164.261818 253.7972,154.024768 258.69329,151.274856 C263.588688,148.524254 278.428426,135.995266 281.335371,137.064561 Z" id="梧桐街道"></path>
        <path d="M88.2779186,155.003755 C89.0373277,154.849944 91.7739494,159.468454 92.3821639,160.238206 C92.9896911,161.007957 95.7270001,159.313947 98.0066018,158.544891 C100.287578,157.775139 102.263416,164.702904 102.263416,165.318149 C102.263416,165.93409 108.192305,164.856716 109.03006,165.318149 C109.868503,165.780278 111.536454,173.323984 111.992787,177.480365 C112.448432,181.636745 121.417706,185.793822 122.633448,186.101444 C123.849877,186.409763 122.025233,187.949266 121.72147,189.180451 C121.417706,190.412332 122.177802,193.490643 122.937899,193.336832 C123.697995,193.183021 126.585811,188.719018 127.194026,188.410699 C127.80224,188.103077 132.059055,193.02921 132.210937,194.106584 C132.362818,195.184653 134.338656,196.877968 136.011418,197.955342 C137.683493,199.033412 139.507449,202.26623 139.963782,203.189793 C140.419427,204.113355 136.467064,206.88474 134.643107,205.960481 C132.819151,205.036918 130.386293,204.421674 129.170551,205.190729 C127.954122,205.960481 127.954122,214.42775 127.80224,215.963773 C127.650359,217.500492 124.761855,217.352945 124.153641,217.998813 C123.545426,218.64468 124.153641,220.74027 124.153641,220.74027 L124.153641,220.74027 L123.089781,221.047892 C122.025233,221.356211 118.681084,219.969822 116.704559,219.508389 C114.728721,219.04626 90.4063258,215.197501 89.3417786,215.963773 C88.2779186,216.730741 87.8215859,218.738637 87.3659405,222.574172 C86.9096078,226.409011 92.8384966,224.74284 94.5098838,224.28071 C96.1826455,223.819277 96.79086,226.127836 96.1826455,227.667339 C95.9509042,228.253919 96.0503047,229.309926 95.9930404,230.58832 C95.1789208,230.237627 94.3856015,229.92979 93.8892798,229.787636 C92.8237256,229.481755 90.0845155,229.32916 87.4987065,228.871374 C84.9115218,228.412898 84.302732,228.260302 82.6297639,228.871374 C80.9554199,229.481755 77.1513435,230.856493 75.9337639,230.856493 C74.7168721,230.856493 75.0209231,228.98185 74.5648467,228.468136 C74.1080823,227.954421 69.9999549,227.190755 69.3904772,225.664112 C68.7823753,224.136779 65.7391142,219.096302 65.7391142,219.096302 C65.7391142,219.096302 63.7614072,222.45685 61.4789613,223.525707 C59.1965155,224.594564 55.8485155,225.510826 55.2397256,224.900445 C54.6309358,224.289374 52.5012034,216.500112 51.5883626,216.346826 C51.01772,216.251506 49.0225948,216.037102 47.1971739,216.038355 C44.9901722,211.901465 41.0000645,207.14782 41.0000645,207.14782 C41.0000645,207.14782 43.2803535,206.576422 45.104997,206.114988 C46.9289533,205.652859 45.104997,206.114988 45.8644061,203.497415 C46.6251897,200.880538 46.7763842,200.880538 46.9289533,199.033412 C47.0808351,197.186286 47.3845988,193.798961 48.601715,190.873766 C49.8174568,187.949266 48.9054787,180.40556 48.601715,177.942494 C48.2972641,175.479428 45.2561916,170.09047 45.2561916,170.09047 C45.2561916,170.09047 49.2092423,171.014729 50.8813168,171.014729 C52.5540785,171.014729 53.0097239,169.475226 54.2254657,167.319782 C55.4418947,165.164338 56.8102056,163.624835 57.4184201,163.163401 C58.0259473,162.701272 58.7860437,163.779342 58.7860437,164.702904 C58.7860437,165.626467 59.3949454,166.396219 60.9151381,166.396219 C62.4346435,166.396219 64.1067179,167.935722 65.1712652,169.166907 C66.2351251,170.398789 67.603436,173.170173 68.6672959,173.323984 C69.7318431,173.477795 71.7083685,173.785418 73.9879702,172.861855 C76.2682592,171.938292 77.7884518,171.938292 79.7642899,172.399725 C81.7408153,172.861855 82.5009116,172.861855 83.8692225,171.783785 C85.2375333,170.706411 85.2375333,168.243345 85.2375333,166.857652 C85.2375333,165.472656 81.8926971,163.933153 81.2844826,163.779342 C80.6762681,163.624835 83.8692225,163.471023 84.0217915,161.470087 C84.1729861,159.468454 87.5178223,155.157566 88.2779186,155.003755 Z" id="河山镇"></path>
        <path d="M51.5883626,216.346826 C52.5012034,216.500112 54.6309358,224.289374 55.2397256,224.900445 C55.8485155,225.510826 59.1965155,224.594564 61.4789613,223.525707 C63.7614072,222.45685 65.7391142,219.096302 65.7391142,219.096302 C65.7391142,219.096302 68.7823753,224.136779 69.3904772,225.664112 C69.9999549,227.190755 74.1080823,227.954421 74.5648467,228.468136 C75.0209231,228.98185 74.7168721,230.856493 75.9337639,230.856493 C77.1513435,230.856493 80.9554199,229.481755 82.6297639,228.871374 C84.302732,228.260302 84.9115218,228.412898 87.4987065,228.871374 C90.0845155,229.32916 92.8237256,229.481755 93.8892798,229.787636 C94.9548339,230.092826 97.3893053,231.161683 98.4534836,231.772755 C99.5190377,232.383826 98.4534836,233.605969 98.302146,235.896969 C98.1494327,238.187969 96.7805155,245.67204 96.9325409,248.573421 C97.0845664,251.475493 102.867038,252.850231 104.844745,253.002826 C106.82314,253.155421 107.431242,255.14054 107.920337,258.195898 C108.409433,261.250564 104.844745,263.69416 103.171089,264.763017 C101.496745,265.831874 102.409586,267.511802 103.627165,268.27616 C104.264335,268.675793 105.117767,269.418242 105.935092,270.687558 C105.471262,270.817972 104.998169,270.848583 104.413442,270.790306 C102.880699,270.637475 99.2019777,270.637475 99.508942,272.320002 C99.8152134,274.002529 102.880699,275.379393 102.727563,276.755566 C102.573735,278.132431 102.727563,281.038991 101.501785,281.038991 C100.275313,281.038991 98.7425706,278.744447 97.5167921,278.89797 C96.2903207,279.050801 95.3708136,279.356464 94.9107136,282.110193 C94.4513065,284.86323 94.1443422,286.545757 92.9178708,287.769791 C91.6913994,288.993132 90.6187566,289.145964 89.2391495,288.534639 C87.8602353,287.922622 84.4884783,285.933741 82.9557355,286.392926 C81.4222998,286.852111 81.2691641,288.534639 81.8823998,289.452318 C82.4956355,290.369997 84.9478854,290.829182 83.721414,292.053215 C82.4956355,293.276557 80.5027927,295.111915 78.8169142,296.335949 C77.1310357,297.55929 74.5256501,299.39534 73.2991787,299.701003 C72.0734002,300.007357 71.0000645,301.995546 71.0000645,301.995546 C71.0000645,301.995546 76.9779,303.525242 77.5911357,311.479384 C77.8284513,314.5613 78.0198996,316.564002 78.1743054,317.905607 C76.4759461,317.480168 75.0877884,317.062721 74.345904,316.693821 C71.1217709,315.089942 66.7461122,316.464597 64.6735048,318.087118 C62.6008974,319.709639 60.7580399,319.900889 60.7580399,318.087118 C60.7580399,316.273347 59.8369582,312.112099 57.7643508,312.112099 C55.6910493,312.112099 55.9214933,314.860718 52.4669163,314.173736 C49.0123393,313.486754 46.2490941,307.530377 44.1764867,307.071928 C42.1031852,306.61417 38.8797463,308.446583 37.9586646,309.592014 C37.0368888,310.737444 37.7282206,315.089942 35.8853631,314.860718 C34.0431997,314.632184 26.6731578,318.29701 24.8303002,318.541424 C22.9881368,318.785147 22.0670551,320.130113 22.0670551,322.420975 C22.0670551,324.711145 19.5342539,324.024163 19.5342539,324.024163 C20.2248917,327.460455 17.0000645,328.491274 17.0000645,328.491274 C17.0000645,328.491274 17.6287592,328.508654 18.5325036,328.52311 C16.9122043,329.70208 15.141412,331.129563 14.7651779,331.507207 C14.157076,332.117588 10.2002862,331.353921 9.59149635,330.590255 C8.98270654,329.827279 4.11376386,330.590255 4.11376386,330.590255 C4.11376386,330.590255 4.26647724,324.480921 4.41781482,323.106874 C4.5705282,321.732136 7.15702501,321.426255 7.15702501,319.593731 C7.15702501,317.761207 5.179318,316.539064 4.5705282,316.081279 C3.96173839,315.622802 5.78810781,313.484398 6.5482352,312.41554 C7.30905049,311.345993 7.15702501,308.597207 6.39620972,307.685088 C5.63539444,306.772969 2.59213329,306.153612 2.44010781,305.084755 C2.28808234,304.015207 4.72255367,304.473683 5.179318,304.167802 C5.63539444,303.862612 5.63539444,300.196874 5.48336896,299.280612 C5.33065558,298.36435 3.2009231,299.280612 3.65768743,298.211064 C4.11376386,297.142207 4.11376386,296.531136 4.26647724,294.698612 C4.41781482,292.866088 5.179318,288.589279 3.2009231,287.21454 C1.22321609,285.839802 -1.28829983,278.89085 0.766451762,279.349326 C2.82051546,279.807112 7.84217151,279.807112 9.2110887,278.432374 C10.5426492,277.096494 9.50093478,273.377792 9.44203431,273.172229 L9.43947087,273.16335 L16.5145027,273.16335 C18.34156,273.16335 19.9388594,271.559374 21.0800823,270.185326 C22.2206174,268.810588 20.8517002,268.352112 20.8517002,266.519588 C20.8517002,264.687064 22.4489995,262.85385 22.4489995,261.479112 C22.4489995,260.104374 21.3077766,256.668564 21.3077766,256.668564 C21.3077766,256.668564 19.0260186,257.12635 17.4280314,256.668564 C15.8300441,256.210088 11.9502989,249.10785 9.43947087,249.10785 C6.92933074,249.10785 2.82051546,242.464088 2.59213329,241.777064 C2.59213329,241.777064 3.96173839,239.867898 6.39620972,239.104231 C8.83068106,238.340564 9.43947087,236.813231 10.2002862,235.896969 C10.9611014,234.980707 8.37391673,233.147493 8.06986577,232.231231 C7.76581482,231.314969 9.74352183,231.467564 10.3523116,230.856493 C10.9611014,230.245421 7.9178403,227.954421 7.46107597,227.190755 C7.00499953,226.427779 8.67865558,226.121898 9.59149635,225.205636 C10.5043371,224.289374 12.6354454,222.76204 14.3084135,222.609445 C15.9827575,222.45685 21.9165664,223.067231 22.6773817,223.525707 C23.4388849,223.983493 25.4165919,223.830898 25.8733562,223.525707 C26.3294327,223.220517 28.0030887,223.220517 28.6118785,223.373112 C29.2206683,223.525707 29.8294581,222.609445 30.43756,222.150969 C31.0463499,221.693183 36.5240823,222.45685 37.2855855,221.845779 C38.0457129,221.234707 37.5896365,219.401493 37.5896365,218.790421 C37.5896365,218.18004 39.111267,218.027445 40.1761333,218.057136 C41.2416874,218.086826 42.7626301,216.957898 44.4362862,216.346826 C46.1106301,215.736445 50.6748339,216.194231 51.5883626,216.346826 Z" id="州泉镇"></path>
        <path d="M283.272632,265.528622 C284.522004,268.331888 286.722975,270.58104 288.271313,272.375723 C290.251146,274.669753 292.230289,274.516265 294.362257,274.82255 C296.494914,275.128144 296.189953,279.105016 295.428585,279.869001 C294.666529,280.633678 292.230289,280.328084 291.621746,280.480881 C291.012513,280.633678 292.383114,284.457062 292.687385,285.528024 C292.992346,286.598294 288.119866,287.821362 286.444306,288.739527 C284.769434,289.657001 285.683626,292.868505 286.140034,293.327588 C286.59713,293.785979 288.880545,293.327588 288.880545,293.327588 L288.880545,293.327588 L288.880545,300.668069 C288.880545,301.432746 291.012513,301.585543 291.012513,302.656505 C291.012513,303.726776 285.378666,309.996986 285.378666,310.91446 C285.378666,311.831934 287.814906,315.656008 287.053538,316.879076 C286.29217,318.102835 285.378666,321.619933 285.225841,322.079016 C285.074394,322.537407 287.053538,325.443317 285.225841,325.902399 C283.398834,326.361482 280.962594,329.572986 280.353362,330.490459 C279.744818,331.407933 282.48533,334.46664 281.419002,334.925031 C280.353362,335.384114 277.764986,338.595617 277.61285,340.278459 C277.460026,341.96061 275.785842,342.725286 273.044642,343.336475 C270.303442,343.948354 266.19233,344.713031 264.060362,347.312655 C261.929083,349.912971 265.430962,350.372053 266.801562,351.595121 C268.171474,352.81888 265.278826,355.11291 265.888058,356.488775 C266.496602,357.865332 267.867202,358.935602 268.019338,359.249493 C268.171474,359.562693 267.562242,360.924038 268.171474,362.300595 C268.780706,363.677151 268.171474,362.300595 270.455578,363.524354 C272.74037,364.747422 269.998482,368.418008 269.69421,369.029888 C269.389938,369.641076 266.648738,369.488279 261.776258,369.793873 C256.903779,370.100158 248.224459,371.170429 245.178987,371.629512 C242.133515,372.087903 241.524283,374.841016 240.457955,374.993813 C239.392315,375.147301 233.910603,372.394188 233.910603,372.394188 L233.910603,372.394188 L221.119483,372.394188 L213.765207,362.695874 C213.32808,360.679337 212.432944,356.530522 212.317288,355.840561 C212.164152,354.922882 212.011016,348.650576 212.777388,348.039251 C213.543759,347.427234 215.382773,347.12088 215.229638,342.073299 C215.076502,337.025026 216.30228,331.977445 216.30228,329.988564 L216.30228,326.62351 C216.30228,326.62351 221.820016,326.470679 223.965994,327.388358 C226.112666,328.306037 224.579923,324.940983 222.433252,323.258456 C220.287273,321.575237 221.20678,319.89271 219.981002,319.587048 C218.75453,319.281385 214.156995,313.773927 214.156995,311.632906 C214.156995,309.491194 218.448259,310.408873 218.602088,309.338363 C218.75453,308.267161 214.463266,303.372411 214.463266,301.995546 C214.463266,300.618682 216.149838,290.52352 215.382773,288.228284 C214.888253,286.746333 214.201521,284.817836 213.529417,283.555428 C214.143464,283.361689 214.99263,283.346882 216.222748,283.346882 C220.19487,283.346882 224.472274,280.885748 225.542143,279.501143 C226.611321,278.116538 229.972187,278.731995 231.653311,279.654834 C233.333745,280.578367 235.166819,280.732058 237.153225,279.96291 C239.139631,279.193762 240.36145,280.424677 240.667423,282.116663 C240.972705,283.808649 242.653139,285.962402 244.02829,286.269783 C245.40275,286.577164 255.944655,286.577164 257.472447,286.423473 C259.000239,286.269783 259.764135,285.193254 261.597209,285.193254 C263.430974,285.193254 263.736257,286.269783 264.500843,286.116092 C265.264049,285.962402 266.333918,281.654896 268.472965,279.80922 C270.611321,277.962848 273.055651,277.809157 273.055651,277.809157 L273.055651,272.578813 C273.055651,272.578813 282.222404,268.425693 282.9863,266.425631 C283.078977,266.183283 283.169391,265.902507 283.255642,265.595084 Z" id="高桥镇"></path>
        <path d="M44.1764867,307.071928 C46.2490941,307.530377 49.0123393,313.486754 52.4669163,314.173736 C55.9214933,314.860718 55.6910493,312.112099 57.7643508,312.112099 C59.8369582,312.112099 60.7580399,316.273347 60.7580399,318.087118 C60.7580399,319.900889 62.6008974,319.709639 64.6735048,318.087118 C66.7461122,316.464597 71.1217709,315.089942 74.345904,316.693821 C75.087758,317.062706 76.4758322,317.480133 78.1734676,317.904236 C78.4184296,320.026825 78.5699681,320.495369 78.6637785,320.963912 C78.8169142,321.72876 81.8823998,322.646439 84.641614,323.104933 C87.4001353,323.564118 90.1586566,326.012185 90.1586566,327.235527 C90.1586566,328.45956 87.0938639,328.765222 83.5689712,330.600581 C80.0433856,332.436631 73.7585858,337.33138 74.2193787,337.943397 C74.6787858,338.555414 80.8090641,343.755826 81.2691641,346.815218 C81.7285712,349.874609 83.721414,360.582479 85.5611211,362.112175 C85.8023033,362.312791 86.0434855,362.466056 86.2825935,362.580247 C85.1648638,363.475128 84.1218926,364.320359 83.5581093,364.801217 C81.9463898,366.175872 79.1824506,370.757594 80.3332821,371.673801 C81.4855019,372.590007 85.3794495,375.797075 85.3794495,375.797075 C85.3794495,375.797075 82.6370276,376.484747 81.7159459,377.629487 C80.7941701,378.775608 80.9392387,380.837246 80.0611917,381.982676 C79.1824506,383.128107 76.6489553,384.502762 76.6489553,384.502762 C76.6489553,384.502762 69.0491635,375.50433 68.1273877,374.96372 C67.206306,374.42242 62.6008974,378.775608 62.6008974,378.775608 C62.6008974,378.775608 59.6065142,377.400954 56.8432691,377.629487 C54.0793298,377.859402 51.0856407,378.546384 51.0856407,378.546384 L51.0856407,387.251381 C51.0856407,387.251381 46.7092879,390.229915 46.4795381,387.251381 C46.2490941,384.273537 46.4795381,382.2119 46.4795381,382.2119 C46.4795381,382.2119 44.6373746,381.295694 43.4851549,382.898883 C42.3336292,384.502762 38.1884144,390 35.4244752,390 C32.6612301,390 33.5823118,387.022157 33.3518678,386.335174 C33.122118,385.648192 29.437097,379.691815 29.6668469,378.31716 C29.8972908,376.942505 33.3518678,374.782136 33.3518678,372.998744 C33.3518678,371.215352 32.2010363,367.092078 32.4307861,364.342768 C32.6612301,361.594149 30.5879286,361.364925 30.5879286,359.074064 C30.5879286,356.783203 29.8764676,353.346911 29.6571293,351.972256 C29.437097,350.598292 25.5223262,344.41269 25.5223262,344.41269 L25.5389594,344.380754 C25.7567569,343.960219 28.0331803,339.492655 27.5942395,337.310882 C27.1340457,335.020711 25.752076,328.377352 23.4490247,328.491274 C21.1459734,328.605886 17.0000645,328.491274 17.0000645,328.491274 C17.0000645,328.491274 20.2248917,327.460455 19.5342539,324.024163 C19.5342539,324.024163 22.0670551,324.711145 22.0670551,322.420975 C22.0670551,320.130113 22.9881368,318.785147 24.8303002,318.541424 C26.6731578,318.29701 34.0431997,314.632184 35.8853631,314.860718 C37.7282206,315.089942 37.0368888,310.737444 37.9586646,309.592014 C38.8797463,308.446583 42.1031852,306.61417 44.1764867,307.071928 Z" id="大麻镇"></path>
        <path d="M220.652793,218.419264 C221.875303,217.483908 224.166991,218.277396 224.738877,219.20093 C225.310764,220.123768 222.639199,223.662126 223.861709,224.123197 C225.083529,224.584964 227.069935,227.661555 227.222576,227.815246 C227.375908,227.968936 229.361623,225.354112 229.361623,224.431274 C229.361623,223.50774 230.430801,222.277521 231.49998,222.431211 C232.569848,222.584902 235.472101,225.815183 235.472101,224.738655 C235.472101,223.662126 237.917121,218.123705 238.528376,218.431782 C239.139631,218.739163 240.208809,226.584331 241.278678,227.353479 C242.347166,228.122627 245.097468,227.968936 246.62526,227.968936 C248.153743,227.968936 248.000411,230.891837 248.153743,231.660985 C248.305694,232.430133 250.444741,232.122752 251.055996,233.814738 C251.667251,235.506724 248.305694,235.198647 248.459025,238.121548 C248.611666,241.044449 252.125865,244.582807 253.805607,244.582807 C255.486731,244.582807 262.819719,244.582807 264.347512,245.043878 C265.875304,245.505645 267.250455,251.350751 267.250455,251.350751 L267.250455,251.350751 L270.000065,251.350751 C272.750369,251.350751 272.139114,250.120532 272.445086,249.043308 C272.750369,247.966779 276.264567,248.582236 276.264567,248.582236 C276.264567,248.582236 276.569849,252.581666 277.181104,255.0428 C277.792359,257.503933 283.139632,258.581158 283.750887,259.19592 C284.361451,259.811377 283.750887,264.426264 282.9863,266.425631 C282.222404,268.425693 273.055651,272.578813 273.055651,272.578813 L273.055651,272.578813 L273.055651,277.809157 C273.055651,277.809157 270.611321,277.962848 268.472965,279.80922 C266.333918,281.654896 265.264049,285.962402 264.500843,286.116092 C263.736257,286.269783 263.430974,285.193254 261.597209,285.193254 C259.764135,285.193254 259.000239,286.269783 257.472447,286.423473 C255.944655,286.577164 245.40275,286.577164 244.02829,286.269783 C242.653139,285.962402 240.972705,283.808649 240.667423,282.116663 C240.36145,280.424677 239.139631,279.193762 237.153225,279.96291 C235.166819,280.732058 233.333745,280.578367 231.653311,279.654834 C229.972187,278.731995 226.611321,278.116538 225.542143,279.501143 C224.472274,280.885748 220.19487,283.346882 216.222748,283.346882 C214.99263,283.346882 214.143464,283.361689 213.530033,283.555738 C213.160878,282.863206 212.796748,282.371271 212.471116,282.263024 C211.550916,281.95667 199.595938,282.263024 199.595938,282.263024 C199.595938,282.263024 194.078203,280.88616 194.078203,281.345345 C194.078203,281.803839 194.231338,285.168893 194.231338,285.168893 C194.231338,285.168893 191.472124,285.628078 191.779089,286.545757 C192.08536,287.463437 187.794096,280.733328 185.494289,279.968481 C183.195867,279.203633 171.240196,279.050801 167.715304,279.968481 C164.189718,280.88616 162.350704,280.733328 160.664132,282.263024 C158.978947,283.79272 158.365711,285.016062 157.292375,284.86323 C156.219733,284.710399 155.300226,283.333535 153.767483,283.486366 C152.234047,283.639889 149.169254,284.710399 147.023276,285.168893 C144.877297,285.628078 143.95779,286.852111 142.118776,286.698589 C140.279069,286.545757 139.206426,286.240095 139.206426,286.240095 C139.206426,286.240095 141.352405,283.945551 141.50554,281.803839 C141.646953,279.835633 142.564839,269.852217 142.712094,267.659205 C143.091364,265.667156 143.347337,264.100772 143.347337,263.503425 C143.347337,261.195982 145.486384,243.197506 145.639716,240.121611 C145.791667,237.045019 149.000583,227.968936 149.000583,227.968936 L149.000583,227.968936 L151.750194,231.968366 L161.375561,231.968366 C163.819891,231.968366 169.931059,235.814105 171.764134,236.736943 C173.597208,237.660477 175.278332,237.19871 178.027944,236.275872 C180.778246,235.353033 186.736773,232.430133 186.888724,231.814675 C187.042056,231.199218 187.042056,227.661555 187.194697,226.892407 C187.348028,226.12326 195.139631,230.122689 195.902836,231.045527 C196.667423,231.968366 195.902836,234.737576 196.819373,234.737576 C197.736601,234.737576 199.417034,231.968366 200.333571,232.737513 C201.250109,233.506661 204.153743,235.506724 205.986817,235.660414 C207.819891,235.814105 210.416862,234.275809 211.792013,232.737513 C213.167164,231.199218 211.638681,228.891774 212.097295,224.738655 C212.5566,220.585535 213.473137,223.354049 215.306211,223.200359 C217.139285,223.046668 219.430974,219.35462 220.652793,218.419264 Z" id="凤鸣街道"></path>
        <path d="M71.0000645,301.995546 C71.0000645,301.995546 76.9779,303.525242 77.5911357,311.479384 C78.2036785,319.434216 78.5106428,320.199064 78.6637785,320.963912 C78.8169142,321.72876 81.8823998,322.646439 84.641614,323.104933 C87.4001353,323.564118 90.1586566,326.012185 90.1586566,327.235527 C90.1586566,328.45956 87.0938639,328.765222 83.5689712,330.600581 C80.0433856,332.436631 73.7585858,337.33138 74.2193787,337.943397 C74.6787858,338.555414 80.8090641,343.755826 81.2691641,346.815218 C81.7285712,349.874609 83.721414,360.582479 85.5611211,362.112175 C87.4001353,363.641871 89.2391495,362.418529 90.1586566,362.112175 C91.0788566,361.806513 92.1514994,363.029854 92.3046351,363.641871 C92.4584637,364.253888 94.9107136,361.500159 96.1364921,361.347327 C97.3629635,361.194496 104.719713,365.783583 107.632063,366.548431 C110.544413,367.313279 116.062148,367.924604 116.675384,370.066317 C117.28862,372.208029 118.208127,372.208029 120.20097,370.831164 C122.19312,369.4543 123.725862,368.995806 125.718705,370.371979 C127.710855,371.748844 129.550562,373.584893 129.703698,372.820046 C129.856834,372.055198 129.090462,368.230958 129.703698,367.924604 C130.316934,367.618942 131.542712,366.089246 133.381726,366.089246 C135.221434,366.089246 136.907312,366.854094 137.366719,361.347327 C137.826819,355.840561 137.366719,351.251474 137.366719,351.251474 C137.366719,351.251474 142.425047,349.874609 144.571026,355.993392 C146.716312,362.112175 146.41004,361.653681 148.86229,360.276125 C151.31454,358.899952 152.694147,357.82875 154.074447,359.205615 C155.453361,360.582479 156.67914,359.970463 158.518847,357.981582 C160.357861,355.993392 164.496682,354.463696 165.87629,354.922882 C167.255204,355.381376 168.022268,357.370257 169.094218,357.370257 C170.167554,357.370257 172.619803,352.169153 173.846275,350.486626 C175.072053,348.804099 179.210875,347.732897 180.743618,349.415424 C182.27636,351.098642 182.735767,357.523088 187.027031,359.052784 C191.319681,360.582479 198.982702,359.511277 200.361617,359.205615 C201.741917,358.899952 207.412788,354.616528 207.412788,354.616528 L214.003859,363.794702 C214.003859,363.794702 212.471116,356.75824 212.317288,355.840561 C212.164152,354.922882 212.011016,348.650576 212.777388,348.039251 C213.543759,347.427234 215.382773,347.12088 215.229638,342.073299 C215.076502,337.025026 216.30228,331.977445 216.30228,329.988564 L216.30228,326.62351 C216.30228,326.62351 221.820016,326.470679 223.965994,327.388358 C226.112666,328.306037 224.579923,324.940983 222.433252,323.258456 C220.287273,321.575237 221.20678,319.89271 219.981002,319.587048 C218.75453,319.281385 214.156995,313.773927 214.156995,311.632906 C214.156995,309.491194 218.448259,310.408873 218.602088,309.338363 C218.75453,308.267161 214.463266,303.372411 214.463266,301.995546 C214.463266,300.618682 216.149838,290.52352 215.382773,288.228284 C214.617095,285.933741 213.390623,282.568687 212.471116,282.263024 C211.550916,281.95667 199.595938,282.263024 199.595938,282.263024 C199.595938,282.263024 194.078203,280.88616 194.078203,281.345345 C194.078203,281.803839 194.231338,285.168893 194.231338,285.168893 C194.231338,285.168893 191.472124,285.628078 191.779089,286.545757 C192.08536,287.463437 187.794096,280.733328 185.494289,279.968481 C183.195867,279.203633 171.240196,279.050801 167.715304,279.968481 C164.189718,280.88616 162.350704,280.733328 160.664132,282.263024 C158.978947,283.79272 158.365711,285.016062 157.292375,284.86323 C156.219733,284.710399 155.300226,283.333535 153.767483,283.486366 C152.234047,283.639889 149.169254,284.710399 147.023276,285.168893 C144.877297,285.628078 143.95779,286.852111 142.118776,286.698589 C140.279069,286.545757 139.206426,286.240095 139.206426,286.240095 C139.206426,286.240095 141.352405,283.945551 141.50554,281.803839 C141.659369,279.662818 142.732012,268.037268 142.732012,267.272421 C142.732012,266.506881 137.366719,265.283539 135.833976,264.671523 C134.301233,264.059506 132.462219,262.52981 131.236441,263.141827 C130.009969,263.753844 129.244291,264.977185 127.863991,265.130017 C126.484384,265.283539 125.10547,266.966066 126.024977,268.648594 C126.944484,270.331121 129.396734,272.320002 129.090462,273.849697 C128.784191,275.379393 127.097619,276.755566 125.258605,276.602735 C123.418898,276.449904 121.273613,271.860816 120.047141,271.095968 C118.821363,270.331121 112.843527,271.249491 111.92402,270.178289 C111.00382,269.107779 110.391277,268.037268 108.55157,269.26061 C106.712556,270.484643 105.946878,270.943137 104.413442,270.790306 C102.880699,270.637475 99.2019777,270.637475 99.508942,272.320002 C99.8152134,274.002529 102.880699,275.379393 102.727563,276.755566 C102.573735,278.132431 102.727563,281.038991 101.501785,281.038991 C100.275313,281.038991 98.7425706,278.744447 97.5167921,278.89797 C96.2903207,279.050801 95.3708136,279.356464 94.9107136,282.110193 C94.4513065,284.86323 94.1443422,286.545757 92.9178708,287.769791 C91.6913994,288.993132 90.6187566,289.145964 89.2391495,288.534639 C87.8602353,287.922622 84.4884783,285.933741 82.9557355,286.392926 C81.4222998,286.852111 81.2691641,288.534639 81.8823998,289.452318 C82.4956355,290.369997 84.9478854,290.829182 83.721414,292.053215 C82.4956355,293.276557 80.5027927,295.111915 78.8169142,296.335949 C77.1310357,297.55929 74.5256501,299.39534 73.2991787,299.701003 C72.0734002,300.007357 71.0000645,301.995546 71.0000645,301.995546" id="崇福镇"></path>
    </defs>
    <g id="页面-1" stroke="none" stroke-width="1" fill="none" fill-rule="evenodd">
        <g id="画板" transform="translate(-25.000000, -18.000000)">
            <g id="编组-2" transform="translate(24.999935, 18.000000)">
                <g id="屠甸镇">
                    <use fill="#E47C03" xlink:href="#path-1"></use>
                    <use stroke="#FFFFFF" stroke-width="1" fill="#E4DFFF" xlink:href="#path-1"></use>
                </g>
                <g id="石门镇">
                    <use fill="#569FB2" xlink:href="#path-2"></use>
                    <use stroke="#FFFFFF" stroke-width="1" fill="#E4DFFF" xlink:href="#path-2"></use>
                </g>
                <g id="濮院镇">
                    <use fill="#F09EBF" xlink:href="#path-3"></use>
                    <use stroke="#FFFFFF" stroke-width="1" fill="#E4DFFF" xlink:href="#path-3"></use>
                </g>
                <g id="梧桐街道">
                    <use fill="#FCD000" xlink:href="#path-4"></use>
                    <use stroke="#FFFFFF" stroke-width="1" fill="#E4DFFF" xlink:href="#path-4"></use>
                </g>
                <g id="河山镇">
                    <use fill="#23AE3B" xlink:href="#path-5"></use>
                    <use stroke="#FFFFFF" stroke-width="1" fill="#E4DFFF" xlink:href="#path-5"></use>
                </g>
                <g id="州泉镇">
                    <use fill="#C368A1" xlink:href="#path-6"></use>
                    <use stroke="#FFFFFF" stroke-width="1" fill="#E4DFFF" xlink:href="#path-6"></use>
                </g>
                <g id="高桥镇">
                    <use fill="#8BC58B" xlink:href="#path-7"></use>
                    <use stroke="#FFFFFF" stroke-width="1" fill="#E4DFFF" xlink:href="#path-7"></use>
                </g>
                <g id="大麻镇">
                    <use fill="#F1AC6B" xlink:href="#path-8"></use>
                    <use stroke="#FFFFFF" stroke-width="1" fill="#E4DFFF" xlink:href="#path-8"></use>
                </g>
                <g id="凤鸣街道">
                    <use fill="#FAF19A" xlink:href="#path-9"></use>
                    <use stroke="#FFFFFF" stroke-width="1" fill="#E4DFFF" xlink:href="#path-9"></use>
                </g>
                <g id="崇福镇">
                    <use fill="#00A095" xlink:href="#path-10"></use>
                    <use stroke="#FFFFFF" stroke-width="1" fill="#E4DFFF" xlink:href="#path-10"></use>
                </g>
                <path d="M238.079903,10.0024132 C240.142607,9.88758603 240.256549,13.9044619 242.547829,14.8223875 C244.839108,15.7403132 246.787179,15.0520418 247.588919,16.5441034 C248.39066,18.0354731 246.672546,19.757189 249.192401,19.1830531 C251.712946,18.609609 260.304898,16.1996218 261.794437,16.1996218 C263.283285,16.1996218 266.835528,17.0027203 267.064103,21.1337316 C267.293369,25.2654346 269.126116,34.6750371 269.584649,34.7898643 C270.043181,34.9046915 270.844921,35.3640002 270.730288,36.9701971 C270.616346,38.5770858 271.532719,60.7255871 271.418086,63.5941912 C271.364204,64.9425544 271.107859,67.1278157 270.851288,69.0653151 L270.575673,69.068043 L270.575673,69.068043 C269.205347,69.068043 268.138696,70.141106 266.158953,70.9072826 C264.178521,71.6734593 251.993634,73.665103 251.993634,73.665103 C251.993634,73.665103 252.450179,82.8592228 251.993634,84.2384794 C251.536399,85.6170432 250.045566,86.230123 247.744933,85.3108496 C245.443611,84.3915761 243.768232,84.0853826 243.61605,84.5446729 C243.463179,85.004656 244.225466,88.528653 243.61605,89.4479264 C243.006633,90.3678926 240.265292,90.5209894 240.112421,94.1987759 C239.960239,97.8758697 239.655875,100.327496 237.979808,102.013639 C236.305117,103.699089 236.000065,104.465266 236.000065,104.465266 C236.000065,104.465266 240.569656,112.433226 241.179072,113.812483 C241.788489,115.191739 242.702269,115.65103 241.331254,117.030286 C239.960239,118.409543 237.523262,119.941896 237.523262,119.941896 L245.748663,119.941896 C245.748663,119.941896 248.337823,118.256446 250.622618,118.868833 C252.907414,119.481913 253.516831,121.474249 253.516831,123.465893 C253.516831,125.458229 254.734975,125.458229 255.496574,125.611326 C256.258172,125.765116 256.867589,127.450566 258.390786,127.143679 C259.913983,126.837486 259.609619,125.765116 261.894414,125.458229 C264.178521,125.151343 265.854589,126.990583 266.615499,128.982919 C267.175674,130.4465 270.861345,137.619921 272.776396,141.320942 C267.55971,144.919015 261.496337,149.699894 258.69329,151.274856 C253.7972,154.024768 234.827013,164.261818 229.62522,168.387722 C224.424119,172.512935 215.856135,176.791497 210.348639,179.388751 C204.841143,181.986005 192.907659,189.778458 189.236456,191.612423 C186.153102,193.151856 180.804427,195.984465 179.169043,196.852951 C176.629221,194.669092 173.476609,191.656738 173.476609,191.656738 L173.476609,191.656738 L173.476609,187.975267 C172.561168,188.281825 170.272222,187.361457 169.509929,187.054206 C168.746257,186.747648 169.051174,180.917496 169.051174,180.917496 C169.967305,180.917496 172.561168,176.008406 172.256251,173.70714 C171.951334,171.405873 168.899405,166.036253 166.152394,165.729694 C163.405382,165.422443 162.948006,164.809327 162.489941,163.12187 C162.032565,161.43372 163.710299,158.518644 162.489941,156.371351 C161.268893,154.223364 160.353453,152.228656 160.353453,152.228656 C159.285554,154.070085 156.539231,154.837174 154.249595,151.308288 C152.815894,149.097941 154.615086,145.623939 156.159748,143.336457 C157.764951,142.291541 159.296352,141.04652 159.069437,140.213659 C158.611596,138.53068 154.640183,136.081956 152.806745,134.55185 C150.973998,133.021743 150.66808,132.103817 149.14056,132.25669 C147.613041,132.409562 142.114799,132.409562 142.573331,130.420838 C143.031172,128.431423 145.933598,128.125678 145.62768,126.748444 C145.322452,125.37121 144.100851,120.169401 145.169147,119.250783 C146.238825,118.332858 147.456283,116.649879 150.818622,117.567804 C154.181651,118.486422 158.458982,119.250783 160.596957,118.027113 C162.735622,116.802751 165.026902,115.426208 167.624099,115.273336 C170.220606,115.119772 172.092025,117.185278 174.039405,113.398748 C175.986785,109.611526 178.049489,109.152218 179.423704,107.431194 C180.79861,105.709478 185.83901,99.5129607 186.870017,95.8405664 C187.901024,92.1688638 190.880101,85.1685567 190.192994,84.709248 C189.505886,84.2499394 187.443182,84.709248 186.756075,84.2499394 C186.068276,83.7913224 184.006263,76.4472255 183.663055,75.8730896 C183.319156,75.2989538 183.548422,74.3810281 181.600351,74.3810281 C179.65297,74.3810281 178.553598,73.807584 178.553598,73.807584 L178.553598,70.4796712 C178.553598,70.4796712 175.41362,69.3313995 175.528253,67.3814127 C175.642886,65.4300425 175.872152,62.6755739 177.018483,60.7255871 C178.164122,58.7742169 176.674584,54.9876872 175.986785,53.3807985 C175.299678,51.7739098 173.352298,47.6428986 173.695506,46.150837 C174.039405,44.6594673 175.872152,44.2001586 179.423704,45.0032571 C182.975256,45.8070473 190.765468,46.150837 192.598215,46.6101457 C194.430963,47.0687627 207.491531,51.0856385 208.523228,52.0035642 C209.554235,52.9214898 218.833295,40.0691473 220.895999,37.0850243 C222.958012,34.101593 231.893173,19.6423618 232.810237,17.5768562 C233.72661,15.5106588 236.01789,10.1172404 238.079903,10.0024132 Z" id="乌镇镇" stroke="#FFFFFF" fill="#E4DFFF"></path>
            </g>
        </g>
    </g>
</svg>